<svg width="17" height="17" fill="none" xmlns="http://www.w3.org/2000/svg"><path fill-rule="evenodd" clip-rule="evenodd" d="M8.461 16.789h-.003a8.316 8.316 0 01-3.978-1.013L.066 16.933l1.181-4.313a8.31 8.31 0 01-1.11-4.162C.137 3.868 3.872.133 8.46.133a8.27 8.27 0 015.889 2.442 8.274 8.274 0 012.436 5.89c-.002 4.588-3.735 8.322-8.325 8.324zm-3.777-2.52l.253.15a6.91 6.91 0 003.521.964h.003c3.814 0 6.918-3.104 6.92-6.92a6.878 6.878 0 00-2.025-4.894 6.872 6.872 0 00-4.892-2.03 6.93 6.93 0 00-6.922 6.92A6.9 6.9 0 002.6 12.14l.164.262-.699 2.554 2.619-.687zm7.686-4.012c.145.07.243.117.285.187.052.086.052.503-.121.989-.174.486-1.005.93-1.404.989a2.85 2.85 0 01-1.31-.082c-.302-.096-.69-.224-1.186-.439-1.95-.842-3.268-2.732-3.517-3.089l-.037-.051-.001-.003c-.11-.147-.848-1.13-.848-2.15 0-.957.47-1.46.687-1.69l.041-.045a.764.764 0 01.555-.26 8.258 8.258 0 01.445.008c.121 0 .272-.002.422.357.057.137.14.342.23.557.178.436.376.917.41.987.053.104.088.226.018.365l-.029.059c-.052.106-.09.184-.179.288-.035.04-.07.084-.106.128-.072.087-.144.174-.206.236-.104.104-.212.216-.091.424.121.209.539.89 1.157 1.441a5.372 5.372 0 001.535.97c.058.026.104.046.138.063.208.104.33.087.45-.052.122-.139.52-.608.66-.816.138-.208.277-.173.467-.104.19.07 1.213.573 1.422.677l.113.056z" fill="#FDFDFD"/></svg>