<svg width="17" height="17" viewBox="0 0 17 17" fill="none" xmlns="http://www.w3.org/2000/svg">
<path fill-rule="evenodd" clip-rule="evenodd" d="M8.4612 16.7889H8.45776C7.06448 16.7885 5.69546 16.4389 4.47953 15.7756L0.0664062 16.9333L1.24743 12.6195C0.518917 11.3569 0.135577 9.92484 0.136202 8.45761C0.138028 3.86762 3.87255 0.133301 8.46112 0.133301C10.6881 0.134262 12.7783 1.00122 14.35 2.57479C15.9218 4.14828 16.7869 6.23983 16.786 8.46418C16.7841 13.0531 13.0511 16.7871 8.4612 16.7889ZM4.684 14.2686L4.93666 14.4185C5.99901 15.0489 7.21679 15.3825 8.4584 15.383H8.4612C12.2749 15.383 15.3789 12.279 15.3804 8.4637C15.3811 6.61484 14.6621 4.87643 13.3557 3.56854C12.0493 2.26065 10.3121 1.54003 8.46392 1.53939C4.64728 1.53939 1.54327 4.64311 1.54176 8.45809C1.54122 9.76552 1.90704 11.0388 2.59967 12.1404L2.76419 12.4022L2.06519 14.9555L4.684 14.2686ZM12.3703 10.2565C12.5154 10.3266 12.6134 10.374 12.6552 10.4438C12.7072 10.5305 12.7072 10.947 12.5339 11.433C12.3605 11.9188 11.5295 12.3623 11.1298 12.422C10.7715 12.4756 10.318 12.4979 9.81971 12.3396C9.51759 12.2437 9.13016 12.1157 8.63389 11.9014C6.68384 11.0594 5.36601 9.16936 5.11694 8.81215C5.09949 8.78713 5.08729 8.76962 5.08048 8.76053L5.0788 8.7583C4.96872 8.61142 4.23112 7.62729 4.23112 6.60875C4.23112 5.65061 4.70178 5.1484 4.91842 4.91723C4.93327 4.90139 4.94692 4.88682 4.95914 4.87347C5.1498 4.66522 5.37517 4.61316 5.51383 4.61316C5.65248 4.61316 5.79131 4.61444 5.9125 4.62053C5.92745 4.62128 5.94301 4.62119 5.95909 4.62109C6.08031 4.62038 6.23143 4.61949 6.38051 4.97759C6.43786 5.11541 6.52179 5.31972 6.6103 5.5352C6.78929 5.97096 6.98705 6.45242 7.02184 6.52209C7.07385 6.62621 7.10851 6.74764 7.03918 6.88652C7.02877 6.90735 7.01915 6.927 7.00995 6.94578C6.95787 7.05209 6.91957 7.1303 6.83118 7.2335C6.79642 7.27408 6.7605 7.31783 6.72458 7.36157C6.65302 7.44872 6.58147 7.53586 6.51916 7.59794C6.41502 7.70166 6.30662 7.8142 6.42796 8.02245C6.5493 8.2307 6.96676 8.91183 7.58513 9.46342C8.24985 10.0563 8.82759 10.3069 9.12043 10.4339C9.17761 10.4587 9.22393 10.4788 9.25792 10.4958C9.46584 10.6 9.58719 10.5826 9.70854 10.4438C9.82988 10.305 10.2285 9.83638 10.3672 9.62817C10.5058 9.42 10.6445 9.45468 10.8352 9.52407C11.0259 9.59355 12.0485 10.0967 12.2566 10.2008C12.2972 10.2211 12.3351 10.2395 12.3703 10.2565Z" fill="#FDFDFD"/>
</svg>
